<svg xmlns="http://www.w3.org/2000/svg" width="64" height="64" viewBox="0 0 64 64" fill="none">
  <g transform="translate(10.6667 6.6667) scale(2)">
    <path d="M26.6666 16.0006C26.6666 22.6673 21.9999 26.0006 16.4533 27.9339C16.1628 28.0324 15.8473 28.0277 15.5599 27.9206C9.99992 26.0006 5.33325 22.6673 5.33325 16.0006V6.66728C5.33325 6.31365 5.47373 5.97452 5.72378 5.72447C5.97383 5.47442 6.31296 5.33394 6.66659 5.33394C9.33325 5.33394 12.6666 3.73394 14.9866 1.70728C15.2691 1.46594 15.6284 1.33334 15.9999 1.33334C16.3714 1.33334 16.7308 1.46594 17.0133 1.70728C19.3466 3.74728 22.6666 5.33394 25.3333 5.33394C25.6869 5.33394 26.026 5.47442 26.2761 5.72447C26.5261 5.97452 26.6666 6.31365 26.6666 6.66728V16.0006Z" fill="#4F81F2"/>
    <path d="M26.6666 16.0006C26.6666 22.6673 21.9999 26.0006 16.4533 27.9339C16.1628 28.0324 15.8473 28.0277 15.5599 27.9206C9.99992 26.0006 5.33325 22.6673 5.33325 16.0006V6.66728C5.33325 6.31365 5.47373 5.97452 5.72378 5.72447C5.97383 5.47442 6.31296 5.33394 6.66659 5.33394C9.33325 5.33394 12.6666 3.73394 14.9866 1.70728C15.2691 1.46594 15.6284 1.33334 15.9999 1.33334C16.3714 1.33334 16.7308 1.46594 17.0133 1.70728C19.3466 3.74728 22.6666 5.33394 25.3333 5.33394C25.6869 5.33394 26.026 5.47442 26.2761 5.72447C26.5261 5.97452 26.6666 6.31365 26.6666 6.66728V16.0006Z" stroke="#FFFFFF" stroke-width="2.66667" stroke-linecap="round" stroke-linejoin="round"/>
  </g>
</svg>
