<svg width="64" height="64" viewBox="0 0 64 64" fill="none" xmlns="http://www.w3.org/2000/svg">
<g clip-path="url(#clip0_2340_655)">
<path d="M55 34.4459C55 49.1934 44.7187 56.5671 32.4988 60.8438C31.8588 61.0617 31.1637 61.0513 30.5306 60.8144C18.2813 56.5671 8 49.1934 8 34.4459V13.7994C8 13.0171 8.30949 12.2669 8.86039 11.7137C9.41128 11.1606 10.1584 10.8498 10.9375 10.8498C16.8125 10.8498 24.1563 7.31043 29.2675 2.8272C29.8899 2.29333 30.6815 2 31.4999 2C32.3184 2 33.1102 2.29333 33.7326 2.8272C38.8731 7.33994 46.1875 10.8498 52.0626 10.8498C52.8416 10.8498 53.5887 11.1606 54.1397 11.7137C54.6905 12.2669 55 13.0171 55 13.7994V34.4459Z" fill="#4F81F2"/>
<path d="M55 34.4459C55 49.1934 44.7187 56.5671 32.4988 60.8438C31.8588 61.0617 31.1637 61.0513 30.5306 60.8144C18.2813 56.5671 8 49.1934 8 34.4459V13.7994C8 13.0171 8.30949 12.2669 8.86039 11.7137C9.41128 11.1606 10.1584 10.8498 10.9375 10.8498C16.8125 10.8498 24.1563 7.31043 29.2675 2.8272C29.8899 2.29333 30.6815 2 31.4999 2C32.3184 2 33.1102 2.29333 33.7326 2.8272C38.8731 7.33994 46.1875 10.8498 52.0626 10.8498C52.8416 10.8498 53.5887 11.1606 54.1397 11.7137C54.6905 12.2669 55 13.0171 55 13.7994V34.4459Z" stroke="white" stroke-width="4.49123" stroke-linecap="round" stroke-linejoin="round"/>
</g>
<defs>
<clipPath id="clip0_2340_655">
<rect width="64" height="64" fill="white"/>
</clipPath>
</defs>
</svg>
